<svg width="155" height="83" viewBox="0 0 155 83" fill="none" xmlns="http://www.w3.org/2000/svg">
<g clip-path="url(#clip0_829_1336)">
<path d="M63.8156 58.4748L60.6969 56.1537L56.6237 54.6387L53.9427 51.3298L50.9212 52.8812L46.2948 48.7906L42.0271 42.5244L41.3219 44.1607L39.1758 47.5301L36.8231 51.5541L34.4765 54.1357L34.1178 54.5296L33.0296 53.2812L30.2452 50.439L27.4001 52.4994L24.8224 56.0143L20.123 60.208H25.789L25.6067 59.8686L25.0838 58.7475L25.8377 57.19L26.7496 58.5051L33.4673 60.208C33.4673 60.208 30.4945 58.602 30.3607 58.4566C30.2209 58.3111 28.7132 57.1415 28.7132 57.1415L28.391 54.566L29.8075 55.1962L28.6646 53.1539L30.1662 51.3723L34.1056 55.5901L37.0724 57.7718L36.7076 54.172L38.9935 55.5841C38.9935 55.5841 40.1789 56.3113 40.3613 56.7537C40.5437 57.19 42.0879 57.9233 42.0879 57.9233L48.5077 59.1899C48.5077 59.1899 43.9725 56.5173 43.8326 56.5173C43.6928 56.5173 42.0818 54.5235 42.0818 54.5235L41.638 52.7722L44.24 54.0872L40.9936 51.3177L40.5802 49.9057L40.41 47.5604L43.2065 49.227L41.5833 46.1605L42.7384 45.9908L42.1426 43.9789L42.3189 44.2394L45.772 49.3118L48.4591 51.6874L47.2614 51.3844L43.7171 49.4997L46.7204 51.8571L50.7996 53.76L54.4533 56.3537L56.4413 57.19C56.4413 57.19 55.037 55.9113 54.8667 55.875C54.6965 55.8386 54.1494 54.5963 54.1494 54.5963L53.7481 52.2389L56.2042 55.275L60.3564 56.8203L63.4022 59.0868L63.7244 59.3111C62.9523 59.0868 61.9188 58.7899 61.858 58.7899C61.7547 58.7899 60.2105 58.6081 60.0099 58.499C59.8032 58.3899 57.6815 57.6627 57.6815 57.6627L59.6026 58.8687L60.8002 59.5595L61.2805 60.214H66.3142L63.7973 58.4869L63.8156 58.4748Z" fill="#787878"/>
<path d="M6.99737 76.4856V57.8688H0V53.7539H18.7427V57.8688H11.7454V76.4856H6.99737Z" fill="#3B3B3C"/>
<path d="M20.1291 76.4853V60.2016H24.7859V62.5651H24.9379C25.4911 61.2743 26.5733 59.8926 29.2847 59.8926C30.1783 59.8926 30.762 60.0441 30.762 60.0441V64.6498C30.762 64.6498 30.1176 64.468 29.157 64.468C26.2571 64.468 24.8103 65.9709 24.8103 69.504V76.4792H20.123L20.1291 76.4853Z" fill="#3B3B3C"/>
<path d="M44.4466 62.2924H44.6958V60.2016H49.383V76.4853H44.6958V74.3945H44.4466C44.1669 74.8551 42.7808 76.7883 39.6378 76.7883C34.7986 76.7883 32.458 72.5159 32.458 68.3404C32.458 64.165 34.7986 59.8926 39.6378 59.8926C42.7808 59.8926 44.1669 61.8561 44.4466 62.2863V62.2924ZM37.1999 68.3465C37.1999 70.6494 38.434 73.0189 40.9935 73.0189C43.5529 73.0189 44.787 70.6554 44.787 68.3465C44.787 66.0376 43.5225 63.6741 40.9935 63.6741C38.4644 63.6741 37.1999 66.0376 37.1999 68.3465Z" fill="#3B3B3C"/>
<path d="M70.2354 68.316C70.2354 64.2012 72.7644 59.8984 78.4364 59.8984C82.9656 59.8984 86.1451 62.9406 86.1451 68.4372V69.5765H74.959C75.0806 71.54 76.3451 73.2005 78.5945 73.2005C81.1235 73.2005 81.6768 71.237 81.6768 71.237H85.9931C85.9931 71.237 85.1298 76.8002 78.5945 76.8002C72.8616 76.8002 70.2414 72.5581 70.2414 68.3221L70.2354 68.316ZM81.6342 66.7464C81.543 64.4739 80.1265 63.3952 78.3392 63.3952C76.5518 63.3952 75.1353 64.5951 74.9469 66.7464H81.6342Z" fill="#3B3B3C"/>
<path d="M120.141 71.261V60.2012H124.797V70.3398C124.797 71.9094 125.661 72.9518 127.235 72.9518C129.241 72.9518 130.007 71.2913 130.007 69.5702V60.2012H134.695V76.4848H130.007V74.182H129.825C129.144 75.4425 127.758 76.7939 125.229 76.7939C121.776 76.7939 120.141 74.3638 120.141 71.261Z" fill="#3B3B3C"/>
<path d="M138.695 77.4067H143.255C143.255 77.4067 143.656 79.3398 146.586 79.3398C149.146 79.3398 150.313 77.74 150.313 75.4371V73.716H150.1C149.486 74.7281 147.972 76.1764 145.291 76.1764C140.452 76.1764 138.051 72.0919 138.051 68.0316C138.051 63.9713 140.452 59.8867 145.291 59.8867C147.972 59.8867 149.516 61.3593 150.1 62.3774H150.313V60.1958H155V75.4371C155 79.4914 152.349 82.9941 146.647 82.9941C139.096 82.9941 138.695 77.4006 138.695 77.4006V77.4067ZM150.441 68.0376C150.441 65.7651 149.176 63.5834 146.586 63.5834C143.996 63.5834 142.762 65.7651 142.762 68.0376C142.762 70.3102 144.027 72.4919 146.586 72.4919C149.146 72.4919 150.441 70.2799 150.441 68.0376Z" fill="#3B3B3C"/>
<path d="M109.903 45.8936C99.9751 40.3486 94.3638 39.791 94.3638 39.791C94.3638 39.791 95.1055 42.8453 95.0143 42.7969C102.066 44.4634 115.052 51.9538 115.052 51.9538C115.052 51.9538 98.0783 46.2693 88.6127 44.924C71.7302 42.8878 63.4319 60.2077 63.4319 60.2077L59.766 71.2675L55.9421 60.2077H51.2549L57.237 76.4914H62.137L68.1495 60.2077C78.9708 42.9362 95.2939 49.4085 110.043 53.1416C130.682 59.3229 135.831 49.2267 135.874 49.0873C126.086 55.1414 118.25 50.2872 109.903 45.8997V45.8936Z" fill="#E76827"/>
<path d="M71.9377 43.9542C71.9377 43.9542 80.2178 38.9424 87.1362 39.2212C87.1727 39.2575 87.5861 41.7543 87.5861 41.7543C87.5861 41.7543 79.3424 41.6452 71.9316 43.9542H71.9377Z" fill="#E76827"/>
<path d="M111.515 62.8141H102.639V53.748H97.8906V76.4858H102.639V66.9289H111.515V76.4858H116.263V55.8327C114.779 55.5903 113.199 55.251 111.515 54.8025V62.8141Z" fill="#141414"/>
<path d="M18.7424 44.4148C18.7424 44.4148 24.3537 42.1059 26.9982 45.9844C27.138 46.0328 30.8951 41.1302 35.3452 44.4148C35.3452 44.5057 31.7766 39.3303 27.0408 43.627C26.9496 43.627 23.0527 39.7424 18.7363 44.4148H18.7424Z" fill="#222222"/>
<path d="M50.1428 48.4388C50.1428 48.4388 53.7479 46.9541 55.444 49.4509C55.5352 49.4812 57.9426 46.3359 60.8 48.4388C60.8 48.4994 58.508 45.1724 55.4683 47.9358C55.4075 47.9358 52.9089 45.4451 50.1367 48.4388H50.1428Z" fill="#222222"/>
<path d="M40.9932 40.0218C40.9932 40.0218 43.7836 38.8703 45.0967 40.8035C45.1636 40.8278 47.0361 38.3916 49.249 40.0218C49.249 40.0703 47.4738 37.4947 45.1211 39.6339C45.0724 39.6339 43.1392 37.7007 40.9932 40.0218Z" fill="#222222"/>
<path d="M94.9406 33.3506C95.7842 31.5307 94.9881 29.3736 93.1624 28.5327C91.3367 27.6918 89.1728 28.4854 88.3292 30.3053C87.4856 32.1253 88.2818 34.2823 90.1075 35.1232C91.9332 35.9641 94.0971 35.1705 94.9406 33.3506Z" fill="#1A7A85"/>
<path d="M93.9026 76.4852H89.3613L90.3887 34.458H92.8813L93.9026 76.4852Z" fill="#1A7A85"/>
<path d="M93.0264 36.4697H90.242C90.0536 36.4697 89.8955 36.6273 89.8955 36.8152C89.8955 37.003 90.0536 37.1606 90.242 37.1606H93.0264C93.2149 37.1606 93.3729 37.003 93.3729 36.8152C93.3729 36.6273 93.2149 36.4697 93.0264 36.4697Z" fill="#1A7A85"/>
<path d="M93.0264 37.9248H90.242C90.0536 37.9248 89.8955 38.0824 89.8955 38.2702C89.8955 38.4581 90.0536 38.6157 90.242 38.6157H93.0264C93.2149 38.6157 93.3729 38.4581 93.3729 38.2702C93.3729 38.0824 93.2149 37.9248 93.0264 37.9248Z" fill="#1A7A85"/>
<path d="M93.3129 25.5254H89.9571L89.4707 30.1008H93.7992L93.3129 25.5254Z" fill="#1A7A85"/>
<path d="M91.6345 0C91.4765 0 91.3427 0.127263 91.3427 0.290888L90.9658 26.192H92.3033L91.9264 0.290888C91.9264 0.133324 91.7926 0 91.6345 0Z" fill="#1A7A85"/>
<path d="M92.1389 17.2227H91.0568C90.8014 17.2227 90.5947 17.4287 90.5947 17.6832C90.5947 17.9378 90.8014 18.1438 91.0568 18.1438H92.1389C92.3942 18.1438 92.6009 17.9378 92.6009 17.6832C92.6009 17.4287 92.3942 17.2227 92.1389 17.2227Z" fill="#1A7A85"/>
<path d="M92.1389 6.22949H91.0568C90.8014 6.22949 90.5947 6.43554 90.5947 6.69006C90.5947 6.94459 90.8014 7.15064 91.0568 7.15064H92.1389C92.3942 7.15064 92.6009 6.94459 92.6009 6.69006C92.6009 6.43554 92.3942 6.22949 92.1389 6.22949Z" fill="#1A7A85"/>
<path d="M85.8533 39.2278C85.8533 39.2278 91.6834 38.7369 98.1336 40.664C98.3221 41.7791 96.9785 43.3426 96.9785 43.3426C96.9785 43.3426 92.3461 41.8034 86.9962 41.7488C85.604 40.4944 85.8533 39.2278 85.8533 39.2278Z" fill="#E76827"/>
</g>
<defs>
<clipPath id="clip0_829_1336">
<rect width="155" height="83" fill="white"/>
</clipPath>
</defs>
</svg>
