<svg width="255" height="137" viewBox="0 0 255 137" fill="none" xmlns="http://www.w3.org/2000/svg">
<g clip-path="url(#clip0_829_586)">
<path d="M104.97 96.4899L99.8396 92.6599L93.1396 90.1599L88.7296 84.6999L83.7596 87.2599L76.1496 80.5099L69.1296 70.1699L67.9696 72.8699L64.4396 78.4299L60.5696 85.0699L56.7096 89.3299L56.1196 89.9799L54.3296 87.9199L49.7496 83.2299L45.0696 86.6299L40.8296 92.4299L33.0996 99.3499H42.4196L42.1196 98.7899L41.2596 96.9399L42.4996 94.3699L43.9996 96.5399L55.0496 99.3499C55.0496 99.3499 50.1596 96.6999 49.9396 96.4599C49.7096 96.2199 47.2296 94.2899 47.2296 94.2899L46.6996 90.0399L49.0296 91.0799L47.1496 87.7099L49.6196 84.7699L56.0996 91.7299L60.9796 95.3299L60.3796 89.3899L64.1396 91.7199C64.1396 91.7199 66.0896 92.9199 66.3896 93.6499C66.6896 94.3699 69.2296 95.5799 69.2296 95.5799L79.7896 97.6699C79.7896 97.6699 72.3296 93.2599 72.0996 93.2599C71.8696 93.2599 69.2196 89.9699 69.2196 89.9699L68.4896 87.0799L72.7696 89.2499L67.4296 84.6799L66.7496 82.3499L66.4696 78.4799L71.0696 81.2299L68.3996 76.1699L70.2996 75.8899L69.3196 72.5699L69.6096 72.9999L75.2896 81.3699L79.7096 85.2899L77.7396 84.7899L71.9096 81.6799L76.8496 85.5699L83.5596 88.7099L89.5696 92.9899L92.8396 94.3699C92.8396 94.3699 90.5296 92.2599 90.2496 92.1999C89.9696 92.1399 89.0696 90.0899 89.0696 90.0899L88.4096 86.1999L92.4496 91.2099L99.2796 93.7599L104.29 97.4999L104.82 97.8699C103.55 97.4999 101.85 97.0099 101.75 97.0099C101.58 97.0099 99.0396 96.7099 98.7096 96.5299C98.3696 96.3499 94.8796 95.1499 94.8796 95.1499L98.0396 97.1399L100.01 98.2799L100.8 99.3599H109.08L104.94 96.5099L104.97 96.4899Z" fill="#787878"/>
<path d="M11.51 126.21V95.4902H0V88.7002H30.83V95.4902H19.32V126.21H11.51Z" fill="white"/>
<path d="M33.1096 126.21V99.3401H40.7696V103.24H41.0196C41.9296 101.11 43.7096 98.8301 48.1696 98.8301C49.6396 98.8301 50.5996 99.0801 50.5996 99.0801V106.68C50.5996 106.68 49.5396 106.38 47.9596 106.38C43.1896 106.38 40.8096 108.86 40.8096 114.69V126.2H33.0996L33.1096 126.21Z" fill="white"/>
<path d="M73.1096 102.79H73.5196V99.3401H81.2297V126.21H73.5196V122.76H73.1096C72.6497 123.52 70.3696 126.71 65.1996 126.71C57.2396 126.71 53.3896 119.66 53.3896 112.77C53.3896 105.88 57.2396 98.8301 65.1996 98.8301C70.3696 98.8301 72.6497 102.07 73.1096 102.78V102.79ZM61.1896 112.78C61.1896 116.58 63.2196 120.49 67.4296 120.49C71.6396 120.49 73.6696 116.59 73.6696 112.78C73.6696 108.97 71.5896 105.07 67.4296 105.07C63.2696 105.07 61.1896 108.97 61.1896 112.78Z" fill="white"/>
<path d="M115.53 112.73C115.53 105.94 119.69 98.8398 129.02 98.8398C136.47 98.8398 141.7 103.86 141.7 112.93V114.81H123.3C123.5 118.05 125.58 120.79 129.28 120.79C133.44 120.79 134.35 117.55 134.35 117.55H141.45C141.45 117.55 140.03 126.73 129.28 126.73C119.85 126.73 115.54 119.73 115.54 112.74L115.53 112.73ZM134.28 110.14C134.13 106.39 131.8 104.61 128.86 104.61C125.92 104.61 123.59 106.59 123.28 110.14H134.28Z" fill="white"/>
<path d="M197.62 117.59V99.3398H205.28V116.07C205.28 118.66 206.7 120.38 209.29 120.38C212.59 120.38 213.85 117.64 213.85 114.8V99.3398H221.56V126.21H213.85V122.41H213.55C212.43 124.49 210.15 126.72 205.99 126.72C200.31 126.72 197.62 122.71 197.62 117.59Z" fill="white"/>
<path d="M228.14 127.73H235.64C235.64 127.73 236.3 130.92 241.12 130.92C245.33 130.92 247.25 128.28 247.25 124.48V121.64H246.9C245.89 123.31 243.4 125.7 238.99 125.7C231.03 125.7 227.08 118.96 227.08 112.26C227.08 105.56 231.03 98.8203 238.99 98.8203C243.4 98.8203 245.94 101.25 246.9 102.93H247.25V99.3303H254.96V124.48C254.96 131.17 250.6 136.95 241.22 136.95C228.8 136.95 228.14 127.72 228.14 127.72V127.73ZM247.46 112.27C247.46 108.52 245.38 104.92 241.12 104.92C236.86 104.92 234.83 108.52 234.83 112.27C234.83 116.02 236.91 119.62 241.12 119.62C245.33 119.62 247.46 115.97 247.46 112.27Z" fill="white"/>
<path d="M180.78 75.7302C164.45 66.5802 155.22 65.6602 155.22 65.6602C155.22 65.6602 156.44 70.7002 156.29 70.6202C167.89 73.3702 189.25 85.7302 189.25 85.7302C189.25 85.7302 161.33 76.3502 145.76 74.1301C117.99 70.7702 104.34 99.3502 104.34 99.3502L98.3096 117.6L92.0196 99.3502H84.3096L94.1496 126.22H102.21L112.1 99.3502C129.9 70.8502 156.75 81.5302 181.01 87.6902C214.96 97.8902 223.43 81.2302 223.5 81.0002C207.4 90.9902 194.51 82.9802 180.78 75.7402V75.7302Z" fill="#E76827"/>
<path d="M118.33 72.5297C118.33 72.5297 131.95 64.2597 143.33 64.7197C143.39 64.7797 144.07 68.8997 144.07 68.8997C144.07 68.8997 130.51 68.7197 118.32 72.5297H118.33Z" fill="#E76827"/>
<path d="M183.43 103.65H168.83V88.6904H161.02V126.21H168.83V110.44H183.43V126.21H191.24V92.1304C188.8 91.7304 186.2 91.1704 183.43 90.4304V103.65Z" fill="white"/>
<path d="M30.8303 73.2903C30.8303 73.2903 40.0603 69.4803 44.4103 75.8803C44.6403 75.9603 50.8203 67.8703 58.1403 73.2903C58.1403 73.4403 52.2703 64.9003 44.4803 71.9903C44.3303 71.9903 37.9203 65.5803 30.8203 73.2903H30.8303Z" fill="#95979A"/>
<path d="M82.4797 79.9304C82.4797 79.9304 88.4097 77.4804 91.1997 81.6004C91.3497 81.6504 95.3097 76.4604 100.01 79.9304C100.01 80.0304 96.2397 74.5404 91.2397 79.1004C91.1397 79.1004 87.0297 74.9904 82.4697 79.9304H82.4797Z" fill="#95979A"/>
<path d="M67.4297 66.0399C67.4297 66.0399 72.0197 64.1399 74.1797 67.3299C74.2897 67.3699 77.3697 63.3499 81.0097 66.0399C81.0097 66.1199 78.0897 61.8699 74.2197 65.3999C74.1397 65.3999 70.9597 62.2099 67.4297 66.0399Z" fill="#95979A"/>
<path d="M156.168 55.0328C157.556 52.0297 156.246 48.4703 153.243 47.0827C150.24 45.695 146.68 47.0046 145.293 50.0077C143.905 53.0108 145.215 56.5702 148.218 57.9578C151.221 59.3455 154.78 58.0359 156.168 55.0328Z" fill="#1A7A85"/>
<path d="M154.46 126.21H146.99L148.68 56.8604H152.78L154.46 126.21Z" fill="#1A7A85"/>
<path d="M153.02 60.1797H148.44C148.13 60.1797 147.87 60.4397 147.87 60.7497C147.87 61.0597 148.13 61.3197 148.44 61.3197H153.02C153.33 61.3197 153.59 61.0597 153.59 60.7497C153.59 60.4397 153.33 60.1797 153.02 60.1797Z" fill="#1A7A85"/>
<path d="M153.02 62.5801H148.44C148.13 62.5801 147.87 62.8401 147.87 63.1501C147.87 63.4601 148.13 63.7201 148.44 63.7201H153.02C153.33 63.7201 153.59 63.4601 153.59 63.1501C153.59 62.8401 153.33 62.5801 153.02 62.5801Z" fill="#1A7A85"/>
<path d="M153.49 42.1201H147.97L147.17 49.6701H154.29L153.49 42.1201Z" fill="#1A7A85"/>
<path d="M150.73 0C150.47 0 150.25 0.21 150.25 0.48L149.63 43.22H151.83L151.21 0.48C151.21 0.22 150.99 0 150.73 0Z" fill="#1A7A85"/>
<path d="M151.56 28.4199H149.78C149.36 28.4199 149.02 28.7599 149.02 29.1799C149.02 29.5999 149.36 29.9399 149.78 29.9399H151.56C151.98 29.9399 152.32 29.5999 152.32 29.1799C152.32 28.7599 151.98 28.4199 151.56 28.4199Z" fill="#1A7A85"/>
<path d="M151.56 10.2803H149.78C149.36 10.2803 149.02 10.6203 149.02 11.0403C149.02 11.4603 149.36 11.8003 149.78 11.8003H151.56C151.98 11.8003 152.32 11.4603 152.32 11.0403C152.32 10.6203 151.98 10.2803 151.56 10.2803Z" fill="#1A7A85"/>
<path d="M141.22 64.73C141.22 64.73 150.81 63.92 161.42 67.1C161.73 68.94 159.52 71.52 159.52 71.52C159.52 71.52 151.9 68.98 143.1 68.89C140.81 66.82 141.22 64.73 141.22 64.73Z" fill="#E76827"/>
</g>
<defs>
<clipPath id="clip0_829_586">
<rect width="254.96" height="136.96" fill="white"/>
</clipPath>
</defs>
</svg>
